<mxfile host="app.diagrams.net" agent="Mozilla/5.0 (X11; Linux x86_64; rv:138.0) Gecko/20100101 Firefox/138.0" version="27.0.1">
  <diagram id="BNp7PeDhp7haI3tIQWwQ" name="MainPage">
    <mxGraphModel dx="3628" dy="3300" grid="1" gridSize="10" guides="1" tooltips="1" connect="1" arrows="1" fold="1" page="1" pageScale="1" pageWidth="850" pageHeight="1100" math="0" shadow="0">
      <root>
        <mxCell id="0" />
        <mxCell id="1" parent="0" />
        <mxCell id="w6yn1cIwjwvY7r8YXmAY-1" value="&lt;div&gt;&lt;span style=&quot;font-weight: normal;&quot;&gt;&amp;lt;&amp;lt;Entity&amp;gt;&amp;gt;&lt;/span&gt;&lt;/div&gt;User" style="swimlane;fontStyle=1;align=center;verticalAlign=top;childLayout=stackLayout;horizontal=1;startSize=40;horizontalStack=0;resizeParent=1;resizeParentMax=0;resizeLast=0;collapsible=1;marginBottom=0;whiteSpace=wrap;html=1;fillStyle=auto;fillColor=#A9C4EB;swimlaneFillColor=#A9C4EB;" parent="1" vertex="1">
          <mxGeometry x="-540" y="-2180" width="200" height="308" as="geometry" />
        </mxCell>
        <mxCell id="w6yn1cIwjwvY7r8YXmAY-2" value="- userId: String&lt;div&gt;&lt;br&gt;&lt;/div&gt;" style="text;align=left;verticalAlign=top;spacingLeft=4;spacingRight=4;overflow=hidden;rotatable=0;points=[[0,0.5],[1,0.5]];portConstraint=eastwest;whiteSpace=wrap;html=1;fillStyle=auto;fillColor=none;" parent="w6yn1cIwjwvY7r8YXmAY-1" vertex="1">
          <mxGeometry y="40" width="200" height="26" as="geometry" />
        </mxCell>
        <mxCell id="w6yn1cIwjwvY7r8YXmAY-3" value="- name: String" style="text;align=left;verticalAlign=top;spacingLeft=4;spacingRight=4;overflow=hidden;rotatable=0;points=[[0,0.5],[1,0.5]];portConstraint=eastwest;whiteSpace=wrap;html=1;fillStyle=auto;fillColor=none;" parent="w6yn1cIwjwvY7r8YXmAY-1" vertex="1">
          <mxGeometry y="66" width="200" height="26" as="geometry" />
        </mxCell>
        <mxCell id="w6yn1cIwjwvY7r8YXmAY-4" value="- email: String" style="text;align=left;verticalAlign=top;spacingLeft=4;spacingRight=4;overflow=hidden;rotatable=0;points=[[0,0.5],[1,0.5]];portConstraint=eastwest;whiteSpace=wrap;html=1;fillStyle=auto;fillColor=none;" parent="w6yn1cIwjwvY7r8YXmAY-1" vertex="1">
          <mxGeometry y="92" width="200" height="26" as="geometry" />
        </mxCell>
        <mxCell id="w6yn1cIwjwvY7r8YXmAY-5" value="- password: String" style="text;align=left;verticalAlign=top;spacingLeft=4;spacingRight=4;overflow=hidden;rotatable=0;points=[[0,0.5],[1,0.5]];portConstraint=eastwest;whiteSpace=wrap;html=1;fillStyle=auto;fillColor=none;" parent="w6yn1cIwjwvY7r8YXmAY-1" vertex="1">
          <mxGeometry y="118" width="200" height="26" as="geometry" />
        </mxCell>
        <mxCell id="w6yn1cIwjwvY7r8YXmAY-6" value="- location: String" style="text;align=left;verticalAlign=top;spacingLeft=4;spacingRight=4;overflow=hidden;rotatable=0;points=[[0,0.5],[1,0.5]];portConstraint=eastwest;whiteSpace=wrap;html=1;fillStyle=auto;fillColor=none;" parent="w6yn1cIwjwvY7r8YXmAY-1" vertex="1">
          <mxGeometry y="144" width="200" height="26" as="geometry" />
        </mxCell>
        <mxCell id="w6yn1cIwjwvY7r8YXmAY-7" value="" style="line;strokeWidth=1;align=left;verticalAlign=middle;spacingTop=-1;spacingLeft=3;spacingRight=3;rotatable=0;labelPosition=right;points=[];portConstraint=eastwest;fillStyle=auto;" parent="w6yn1cIwjwvY7r8YXmAY-1" vertex="1">
          <mxGeometry y="170" width="200" height="8" as="geometry" />
        </mxCell>
        <mxCell id="w6yn1cIwjwvY7r8YXmAY-8" value="+ createTrip(): void" style="text;align=left;verticalAlign=top;spacingLeft=4;spacingRight=4;overflow=hidden;rotatable=0;points=[[0,0.5],[1,0.5]];portConstraint=eastwest;whiteSpace=wrap;html=1;fillStyle=auto;fillColor=none;" parent="w6yn1cIwjwvY7r8YXmAY-1" vertex="1">
          <mxGeometry y="178" width="200" height="26" as="geometry" />
        </mxCell>
        <mxCell id="w6yn1cIwjwvY7r8YXmAY-9" value="+ deleteTrip(): void" style="text;align=left;verticalAlign=top;spacingLeft=4;spacingRight=4;overflow=hidden;rotatable=0;points=[[0,0.5],[1,0.5]];portConstraint=eastwest;whiteSpace=wrap;html=1;fillStyle=auto;fillColor=none;" parent="w6yn1cIwjwvY7r8YXmAY-1" vertex="1">
          <mxGeometry y="204" width="200" height="26" as="geometry" />
        </mxCell>
        <mxCell id="w6yn1cIwjwvY7r8YXmAY-10" value="+ addFavorite(): void" style="text;align=left;verticalAlign=top;spacingLeft=4;spacingRight=4;overflow=hidden;rotatable=0;points=[[0,0.5],[1,0.5]];portConstraint=eastwest;whiteSpace=wrap;html=1;fillStyle=auto;fillColor=none;" parent="w6yn1cIwjwvY7r8YXmAY-1" vertex="1">
          <mxGeometry y="230" width="200" height="26" as="geometry" />
        </mxCell>
        <mxCell id="w6yn1cIwjwvY7r8YXmAY-11" value="+ removeFavorite(): void" style="text;align=left;verticalAlign=top;spacingLeft=4;spacingRight=4;overflow=hidden;rotatable=0;points=[[0,0.5],[1,0.5]];portConstraint=eastwest;whiteSpace=wrap;html=1;fillStyle=auto;fillColor=none;" parent="w6yn1cIwjwvY7r8YXmAY-1" vertex="1">
          <mxGeometry y="256" width="200" height="26" as="geometry" />
        </mxCell>
        <mxCell id="w6yn1cIwjwvY7r8YXmAY-12" value="+ getFavorites(): List&amp;lt;Favorite&amp;gt;" style="text;align=left;verticalAlign=top;spacingLeft=4;spacingRight=4;overflow=hidden;rotatable=0;points=[[0,0.5],[1,0.5]];portConstraint=eastwest;whiteSpace=wrap;html=1;fillStyle=auto;fillColor=none;" parent="w6yn1cIwjwvY7r8YXmAY-1" vertex="1">
          <mxGeometry y="282" width="200" height="26" as="geometry" />
        </mxCell>
        <mxCell id="w6yn1cIwjwvY7r8YXmAY-13" value="&lt;div&gt;&lt;span style=&quot;font-weight: normal;&quot;&gt;&amp;lt;&amp;lt;Boundary&amp;gt;&amp;gt;&lt;/span&gt;&lt;/div&gt;GUIOverview_Edit-Export" style="swimlane;fontStyle=1;align=center;verticalAlign=top;childLayout=stackLayout;horizontal=1;startSize=42;horizontalStack=0;resizeParent=1;resizeParentMax=0;resizeLast=0;collapsible=1;marginBottom=0;whiteSpace=wrap;html=1;strokeColor=default;swimlaneFillColor=#CC99FF;fontFamily=Helvetica;fontSize=12;fontColor=default;fillColor=#CC99FF;" parent="1" vertex="1">
          <mxGeometry x="-530" y="-1480" width="340" height="327.11527342236195" as="geometry" />
        </mxCell>
        <mxCell id="w6yn1cIwjwvY7r8YXmAY-14" value="-lblBudget: label" style="text;strokeColor=none;fillColor=none;align=left;verticalAlign=top;spacingLeft=4;spacingRight=4;overflow=hidden;rotatable=0;points=[[0,0.5],[1,0.5]];portConstraint=eastwest;whiteSpace=wrap;html=1;fontFamily=Helvetica;fontSize=12;fontColor=default;fontStyle=0;horizontal=1;" parent="w6yn1cIwjwvY7r8YXmAY-13" vertex="1">
          <mxGeometry y="42" width="340" height="26.3568" as="geometry" />
        </mxCell>
        <mxCell id="w6yn1cIwjwvY7r8YXmAY-15" value="-lblEstimatedCost: label" style="text;strokeColor=none;fillColor=none;align=left;verticalAlign=top;spacingLeft=4;spacingRight=4;overflow=hidden;rotatable=0;points=[[0,0.5],[1,0.5]];portConstraint=eastwest;whiteSpace=wrap;html=1;fontFamily=Helvetica;fontSize=12;fontColor=default;fontStyle=0;horizontal=1;" parent="w6yn1cIwjwvY7r8YXmAY-13" vertex="1">
          <mxGeometry y="68.35679999999999" width="340" height="26.3568" as="geometry" />
        </mxCell>
        <mxCell id="w6yn1cIwjwvY7r8YXmAY-16" value="-btnExport: Button" style="text;strokeColor=none;fillColor=none;align=left;verticalAlign=top;spacingLeft=4;spacingRight=4;overflow=hidden;rotatable=0;points=[[0,0.5],[1,0.5]];portConstraint=eastwest;whiteSpace=wrap;html=1;fontFamily=Helvetica;fontSize=12;fontColor=default;fontStyle=0;horizontal=1;" parent="w6yn1cIwjwvY7r8YXmAY-13" vertex="1">
          <mxGeometry y="94.71359999999999" width="340" height="26.3568" as="geometry" />
        </mxCell>
        <mxCell id="w6yn1cIwjwvY7r8YXmAY-17" value="-btnEdit: Button" style="text;strokeColor=none;fillColor=none;align=left;verticalAlign=top;spacingLeft=4;spacingRight=4;overflow=hidden;rotatable=0;points=[[0,0.5],[1,0.5]];portConstraint=eastwest;whiteSpace=wrap;html=1;fontFamily=Helvetica;fontSize=12;fontColor=default;fontStyle=0;horizontal=1;" parent="w6yn1cIwjwvY7r8YXmAY-13" vertex="1">
          <mxGeometry y="121.07039999999998" width="340" height="26.3568" as="geometry" />
        </mxCell>
        <mxCell id="w6yn1cIwjwvY7r8YXmAY-18" value="" style="line;strokeWidth=1;fillColor=#CC99FF;align=center;verticalAlign=top;spacingTop=-1;spacingLeft=3;spacingRight=3;rotatable=0;labelPosition=right;points=[];portConstraint=eastwest;strokeColor=default;swimlaneFillColor=#CC99FF;fontFamily=Helvetica;fontSize=12;fontColor=default;fontStyle=1;horizontal=1;" parent="w6yn1cIwjwvY7r8YXmAY-13" vertex="1">
          <mxGeometry y="147.42719999999997" width="340" height="19.568473422361876" as="geometry" />
        </mxCell>
        <mxCell id="w6yn1cIwjwvY7r8YXmAY-19" value="+ GUIOverview(): void" style="text;strokeColor=none;fillColor=none;align=left;verticalAlign=top;spacingLeft=4;spacingRight=4;overflow=hidden;rotatable=0;points=[[0,0.5],[1,0.5]];portConstraint=eastwest;whiteSpace=wrap;html=1;fontFamily=Helvetica;fontSize=12;fontColor=default;fontStyle=0;horizontal=1;" parent="w6yn1cIwjwvY7r8YXmAY-13" vertex="1">
          <mxGeometry y="166.99567342236185" width="340" height="34.159800000000004" as="geometry" />
        </mxCell>
        <mxCell id="w6yn1cIwjwvY7r8YXmAY-20" value="+ showBudget(amount: double): void" style="text;strokeColor=none;fillColor=none;align=left;verticalAlign=top;spacingLeft=4;spacingRight=4;overflow=hidden;rotatable=0;points=[[0,0.5],[1,0.5]];portConstraint=eastwest;whiteSpace=wrap;html=1;fontFamily=Helvetica;fontSize=12;fontColor=default;fontStyle=0;horizontal=1;" parent="w6yn1cIwjwvY7r8YXmAY-13" vertex="1">
          <mxGeometry y="201.15547342236187" width="340" height="34.159800000000004" as="geometry" />
        </mxCell>
        <mxCell id="w6yn1cIwjwvY7r8YXmAY-21" value="+ showEstimatedCost(amount: double): void" style="text;strokeColor=none;fillColor=none;align=left;verticalAlign=top;spacingLeft=4;spacingRight=4;overflow=hidden;rotatable=0;points=[[0,0.5],[1,0.5]];portConstraint=eastwest;whiteSpace=wrap;html=1;fontFamily=Helvetica;fontSize=12;fontColor=default;fontStyle=0;horizontal=1;" parent="w6yn1cIwjwvY7r8YXmAY-13" vertex="1">
          <mxGeometry y="235.31527342236188" width="340" height="30.6" as="geometry" />
        </mxCell>
        <mxCell id="w6yn1cIwjwvY7r8YXmAY-22" value="+ showFavorites(favorites: List&amp;lt;FavoriteActivity&amp;gt;): void" style="text;strokeColor=none;fillColor=none;align=left;verticalAlign=top;spacingLeft=4;spacingRight=4;overflow=hidden;rotatable=0;points=[[0,0.5],[1,0.5]];portConstraint=eastwest;whiteSpace=wrap;html=1;fontFamily=Helvetica;fontSize=12;fontColor=default;fontStyle=0;horizontal=1;" parent="w6yn1cIwjwvY7r8YXmAY-13" vertex="1">
          <mxGeometry y="265.9152734223619" width="340" height="30.6" as="geometry" />
        </mxCell>
        <mxCell id="w6yn1cIwjwvY7r8YXmAY-23" value="+ showTripPlan(): void" style="text;strokeColor=none;fillColor=none;align=left;verticalAlign=top;spacingLeft=4;spacingRight=4;overflow=hidden;rotatable=0;points=[[0,0.5],[1,0.5]];portConstraint=eastwest;whiteSpace=wrap;html=1;fontFamily=Helvetica;fontSize=12;fontColor=default;fontStyle=0;horizontal=1;" parent="w6yn1cIwjwvY7r8YXmAY-13" vertex="1">
          <mxGeometry y="296.51527342236193" width="340" height="30.6" as="geometry" />
        </mxCell>
        <mxCell id="w6yn1cIwjwvY7r8YXmAY-24" value="&lt;div&gt;&lt;span style=&quot;font-weight: normal;&quot;&gt;&amp;lt;&amp;lt;Controller&amp;gt;&amp;gt;&lt;/span&gt;&lt;/div&gt;DisplayController" style="swimlane;fontStyle=1;align=center;verticalAlign=top;childLayout=stackLayout;horizontal=1;startSize=40;horizontalStack=0;resizeParent=1;resizeParentMax=0;resizeLast=0;collapsible=1;marginBottom=0;whiteSpace=wrap;html=1;strokeColor=default;swimlaneFillColor=#FF6666;fontFamily=Helvetica;fontSize=12;fontColor=default;fillColor=#FF6666;" parent="1" vertex="1">
          <mxGeometry x="-190" y="-1940" width="250" height="301.25" as="geometry" />
        </mxCell>
        <mxCell id="w6yn1cIwjwvY7r8YXmAY-25" value="" style="line;strokeWidth=1;fillColor=#FF6666;align=center;verticalAlign=top;spacingTop=-1;spacingLeft=3;spacingRight=3;rotatable=0;labelPosition=right;points=[];portConstraint=eastwest;strokeColor=default;swimlaneFillColor=#FF6666;fontFamily=Helvetica;fontSize=12;fontColor=default;fontStyle=1;horizontal=1;" parent="w6yn1cIwjwvY7r8YXmAY-24" vertex="1">
          <mxGeometry y="40" width="250" height="11" as="geometry" />
        </mxCell>
        <mxCell id="w6yn1cIwjwvY7r8YXmAY-26" value="+displayMainPage(): void" style="text;strokeColor=none;fillColor=none;align=left;verticalAlign=top;spacingLeft=4;spacingRight=4;overflow=hidden;rotatable=0;points=[[0,0.5],[1,0.5]];portConstraint=eastwest;whiteSpace=wrap;html=1;fontFamily=Helvetica;fontSize=12;fontColor=default;fontStyle=0;horizontal=1;" parent="w6yn1cIwjwvY7r8YXmAY-24" vertex="1">
          <mxGeometry y="51" width="250" height="35.75" as="geometry" />
        </mxCell>
        <mxCell id="w6yn1cIwjwvY7r8YXmAY-27" value="+displayOverview_Edit-ExportPage(): void" style="text;strokeColor=none;fillColor=none;align=left;verticalAlign=top;spacingLeft=4;spacingRight=4;overflow=hidden;rotatable=0;points=[[0,0.5],[1,0.5]];portConstraint=eastwest;whiteSpace=wrap;html=1;fontFamily=Helvetica;fontSize=12;fontColor=default;fontStyle=0;horizontal=1;" parent="w6yn1cIwjwvY7r8YXmAY-24" vertex="1">
          <mxGeometry y="86.75" width="250" height="35.75" as="geometry" />
        </mxCell>
        <mxCell id="w6yn1cIwjwvY7r8YXmAY-30" value="+displayReviewPage(): void" style="text;strokeColor=none;fillColor=none;align=left;verticalAlign=top;spacingLeft=4;spacingRight=4;overflow=hidden;rotatable=0;points=[[0,0.5],[1,0.5]];portConstraint=eastwest;whiteSpace=wrap;html=1;fontFamily=Helvetica;fontSize=12;fontColor=default;fontStyle=0;horizontal=1;" parent="w6yn1cIwjwvY7r8YXmAY-24" vertex="1">
          <mxGeometry y="122.5" width="250" height="35.75" as="geometry" />
        </mxCell>
        <mxCell id="w6yn1cIwjwvY7r8YXmAY-28" value="+displayOverview_Save-CancelPage(): void" style="text;strokeColor=none;fillColor=none;align=left;verticalAlign=top;spacingLeft=4;spacingRight=4;overflow=hidden;rotatable=0;points=[[0,0.5],[1,0.5]];portConstraint=eastwest;whiteSpace=wrap;html=1;fontFamily=Helvetica;fontSize=12;fontColor=default;fontStyle=0;horizontal=1;" parent="w6yn1cIwjwvY7r8YXmAY-24" vertex="1">
          <mxGeometry y="158.25" width="250" height="35.75" as="geometry" />
        </mxCell>
        <mxCell id="w6yn1cIwjwvY7r8YXmAY-31" value="+displayFavoritesPage(): void" style="text;strokeColor=none;fillColor=none;align=left;verticalAlign=top;spacingLeft=4;spacingRight=4;overflow=hidden;rotatable=0;points=[[0,0.5],[1,0.5]];portConstraint=eastwest;whiteSpace=wrap;html=1;fontFamily=Helvetica;fontSize=12;fontColor=default;fontStyle=0;horizontal=1;" parent="w6yn1cIwjwvY7r8YXmAY-24" vertex="1">
          <mxGeometry y="194" width="250" height="35.75" as="geometry" />
        </mxCell>
        <mxCell id="w6yn1cIwjwvY7r8YXmAY-32" value="+displayAIChatPage(): void" style="text;strokeColor=none;fillColor=none;align=left;verticalAlign=top;spacingLeft=4;spacingRight=4;overflow=hidden;rotatable=0;points=[[0,0.5],[1,0.5]];portConstraint=eastwest;whiteSpace=wrap;html=1;fontFamily=Helvetica;fontSize=12;fontColor=default;fontStyle=0;horizontal=1;" parent="w6yn1cIwjwvY7r8YXmAY-24" vertex="1">
          <mxGeometry y="229.75" width="250" height="35.75" as="geometry" />
        </mxCell>
        <mxCell id="w6yn1cIwjwvY7r8YXmAY-29" value="+displayDailyPlanPage(): void" style="text;strokeColor=none;fillColor=none;align=left;verticalAlign=top;spacingLeft=4;spacingRight=4;overflow=hidden;rotatable=0;points=[[0,0.5],[1,0.5]];portConstraint=eastwest;whiteSpace=wrap;html=1;fontFamily=Helvetica;fontSize=12;fontColor=default;fontStyle=0;horizontal=1;" parent="w6yn1cIwjwvY7r8YXmAY-24" vertex="1">
          <mxGeometry y="265.5" width="250" height="35.75" as="geometry" />
        </mxCell>
        <mxCell id="l6LufB-AqqpaH0JxcJeT-1" value="&lt;div&gt;&lt;span style=&quot;font-weight: normal;&quot;&gt;&amp;lt;&amp;lt;Boundary&amp;gt;&amp;gt;&lt;/span&gt;&lt;/div&gt;GUIMainPage" style="swimlane;fontStyle=1;align=center;verticalAlign=top;childLayout=stackLayout;horizontal=1;startSize=42;horizontalStack=0;resizeParent=1;resizeParentMax=0;resizeLast=0;collapsible=1;marginBottom=0;whiteSpace=wrap;html=1;strokeColor=default;swimlaneFillColor=#CC99FF;fontFamily=Helvetica;fontSize=12;fontColor=default;fillColor=#CC99FF;" parent="1" vertex="1">
          <mxGeometry x="-649.9999999999999" y="-1770" width="287.64" height="179.04187342236187" as="geometry" />
        </mxCell>
        <mxCell id="l6LufB-AqqpaH0JxcJeT-2" value="-CreatePlanBtn: Button" style="text;strokeColor=none;fillColor=none;align=left;verticalAlign=top;spacingLeft=4;spacingRight=4;overflow=hidden;rotatable=0;points=[[0,0.5],[1,0.5]];portConstraint=eastwest;whiteSpace=wrap;html=1;fontFamily=Helvetica;fontSize=12;fontColor=default;fontStyle=0;horizontal=1;" parent="l6LufB-AqqpaH0JxcJeT-1" vertex="1">
          <mxGeometry y="42" width="287.64" height="26.3568" as="geometry" />
        </mxCell>
        <mxCell id="l6LufB-AqqpaH0JxcJeT-3" value="-ProfileBtn:Button" style="text;strokeColor=none;fillColor=none;align=left;verticalAlign=top;spacingLeft=4;spacingRight=4;overflow=hidden;rotatable=0;points=[[0,0.5],[1,0.5]];portConstraint=eastwest;whiteSpace=wrap;html=1;fontFamily=Helvetica;fontSize=12;fontColor=default;fontStyle=0;horizontal=1;" parent="l6LufB-AqqpaH0JxcJeT-1" vertex="1">
          <mxGeometry y="68.35679999999999" width="287.64" height="26.3568" as="geometry" />
        </mxCell>
        <mxCell id="l6LufB-AqqpaH0JxcJeT-4" value="" style="line;strokeWidth=1;fillColor=#CC99FF;align=center;verticalAlign=top;spacingTop=-1;spacingLeft=3;spacingRight=3;rotatable=0;labelPosition=right;points=[];portConstraint=eastwest;strokeColor=default;swimlaneFillColor=#CC99FF;fontFamily=Helvetica;fontSize=12;fontColor=default;fontStyle=1;horizontal=1;" parent="l6LufB-AqqpaH0JxcJeT-1" vertex="1">
          <mxGeometry y="94.71359999999999" width="287.64" height="19.568473422361876" as="geometry" />
        </mxCell>
        <mxCell id="l6LufB-AqqpaH0JxcJeT-5" value="+GUIMainPage(): void" style="text;strokeColor=none;fillColor=none;align=left;verticalAlign=top;spacingLeft=4;spacingRight=4;overflow=hidden;rotatable=0;points=[[0,0.5],[1,0.5]];portConstraint=eastwest;whiteSpace=wrap;html=1;fontFamily=Helvetica;fontSize=12;fontColor=default;fontStyle=0;horizontal=1;" parent="l6LufB-AqqpaH0JxcJeT-1" vertex="1">
          <mxGeometry y="114.28207342236186" width="287.64" height="34.159800000000004" as="geometry" />
        </mxCell>
        <mxCell id="l6LufB-AqqpaH0JxcJeT-6" value="&lt;div&gt;+CreatePlanBtnPress():void&lt;/div&gt;" style="text;strokeColor=none;fillColor=none;align=left;verticalAlign=top;spacingLeft=4;spacingRight=4;overflow=hidden;rotatable=0;points=[[0,0.5],[1,0.5]];portConstraint=eastwest;whiteSpace=wrap;html=1;fontFamily=Helvetica;fontSize=12;fontColor=default;fontStyle=0;horizontal=1;" parent="l6LufB-AqqpaH0JxcJeT-1" vertex="1">
          <mxGeometry y="148.44187342236188" width="287.64" height="30.6" as="geometry" />
        </mxCell>
        <mxCell id="RT5UMt7bTEx5Ig8jD_6E-1" value="&lt;div&gt;&lt;span style=&quot;font-weight: normal;&quot;&gt;&amp;lt;&amp;lt;Boundary&amp;gt;&amp;gt;&lt;/span&gt;&lt;/div&gt;AITravelAssistantBoundary" style="swimlane;fontStyle=1;align=center;verticalAlign=top;childLayout=stackLayout;horizontal=1;startSize=42;horizontalStack=0;resizeParent=1;resizeParentMax=0;resizeLast=0;collapsible=1;marginBottom=0;whiteSpace=wrap;html=1;strokeColor=default;swimlaneFillColor=#CC99FF;fontFamily=Helvetica;fontSize=12;fontColor=default;fillColor=#CC99FF;" parent="1" vertex="1">
          <mxGeometry x="30" y="-2160" width="160" height="80" as="geometry" />
        </mxCell>
        <mxCell id="RT5UMt7bTEx5Ig8jD_6E-2" value="" style="line;strokeWidth=1;fillColor=#CC99FF;align=center;verticalAlign=top;spacingTop=-1;spacingLeft=3;spacingRight=3;rotatable=0;labelPosition=right;points=[];portConstraint=eastwest;strokeColor=default;swimlaneFillColor=#CC99FF;fontFamily=Helvetica;fontSize=12;fontColor=default;fontStyle=1;horizontal=1;" parent="RT5UMt7bTEx5Ig8jD_6E-1" vertex="1">
          <mxGeometry y="42" width="160" height="8" as="geometry" />
        </mxCell>
        <mxCell id="RT5UMt7bTEx5Ig8jD_6E-3" value="+clickAIAssistantBtn(): void" style="text;strokeColor=none;fillColor=none;align=left;verticalAlign=top;spacingLeft=4;spacingRight=4;overflow=hidden;rotatable=0;points=[[0,0.5],[1,0.5]];portConstraint=eastwest;whiteSpace=wrap;html=1;fontFamily=Helvetica;fontSize=12;fontColor=default;fontStyle=0;horizontal=1;" parent="RT5UMt7bTEx5Ig8jD_6E-1" vertex="1">
          <mxGeometry y="50" width="160" height="30" as="geometry" />
        </mxCell>
        <mxCell id="JbC-HzIXj3Qun39S8Tak-1" value="&lt;div&gt;&lt;span style=&quot;font-weight: normal;&quot;&gt;&amp;lt;&amp;lt;Boundary&amp;gt;&amp;gt;&lt;/span&gt;&lt;/div&gt;GUIDailyPlan" style="swimlane;fontStyle=1;align=center;verticalAlign=top;childLayout=stackLayout;horizontal=1;startSize=40;horizontalStack=0;resizeParent=1;resizeParentMax=0;resizeLast=0;collapsible=1;marginBottom=0;whiteSpace=wrap;html=1;strokeColor=default;swimlaneFillColor=#CC99FF;fontFamily=Helvetica;fontSize=12;fontColor=default;fillColor=#CC99FF;" parent="1" vertex="1">
          <mxGeometry x="110" y="-1632.8" width="350" height="517.6800000000001" as="geometry" />
        </mxCell>
        <mxCell id="JbC-HzIXj3Qun39S8Tak-2" value="-plusBtn: Button" style="text;strokeColor=none;fillColor=none;align=left;verticalAlign=top;spacingLeft=4;spacingRight=4;overflow=hidden;rotatable=0;points=[[0,0.5],[1,0.5]];portConstraint=eastwest;whiteSpace=wrap;html=1;fontFamily=Helvetica;fontSize=12;fontColor=default;fontStyle=0;horizontal=1;" parent="JbC-HzIXj3Qun39S8Tak-1" vertex="1">
          <mxGeometry y="40" width="350" height="30" as="geometry" />
        </mxCell>
        <mxCell id="JbC-HzIXj3Qun39S8Tak-3" value="-trashBtn: Button" style="text;strokeColor=none;fillColor=none;align=left;verticalAlign=top;spacingLeft=4;spacingRight=4;overflow=hidden;rotatable=0;points=[[0,0.5],[1,0.5]];portConstraint=eastwest;whiteSpace=wrap;html=1;fontFamily=Helvetica;fontSize=12;fontColor=default;fontStyle=0;horizontal=1;" parent="JbC-HzIXj3Qun39S8Tak-1" vertex="1">
          <mxGeometry y="70" width="350" height="30" as="geometry" />
        </mxCell>
        <mxCell id="JbC-HzIXj3Qun39S8Tak-4" value="-btnSave: Button" style="text;strokeColor=none;fillColor=none;align=left;verticalAlign=top;spacingLeft=4;spacingRight=4;overflow=hidden;rotatable=0;points=[[0,0.5],[1,0.5]];portConstraint=eastwest;whiteSpace=wrap;html=1;fontFamily=Helvetica;fontSize=12;fontColor=default;fontStyle=0;horizontal=1;" parent="JbC-HzIXj3Qun39S8Tak-1" vertex="1">
          <mxGeometry y="100" width="350" height="30" as="geometry" />
        </mxCell>
        <mxCell id="JbC-HzIXj3Qun39S8Tak-5" value="-btnAddActivity: Button" style="text;strokeColor=none;fillColor=none;align=left;verticalAlign=top;spacingLeft=4;spacingRight=4;overflow=hidden;rotatable=0;points=[[0,0.5],[1,0.5]];portConstraint=eastwest;whiteSpace=wrap;html=1;fontFamily=Helvetica;fontSize=12;fontColor=default;fontStyle=0;horizontal=1;" parent="JbC-HzIXj3Qun39S8Tak-1" vertex="1">
          <mxGeometry y="130" width="350" height="30" as="geometry" />
        </mxCell>
        <mxCell id="JbC-HzIXj3Qun39S8Tak-6" value="-NotesBtn:Button" style="text;strokeColor=none;fillColor=none;align=left;verticalAlign=top;spacingLeft=4;spacingRight=4;overflow=hidden;rotatable=0;points=[[0,0.5],[1,0.5]];portConstraint=eastwest;whiteSpace=wrap;html=1;fontFamily=Helvetica;fontSize=12;fontColor=default;fontStyle=0;horizontal=1;" parent="JbC-HzIXj3Qun39S8Tak-1" vertex="1">
          <mxGeometry y="160" width="350" height="30" as="geometry" />
        </mxCell>
        <mxCell id="JbC-HzIXj3Qun39S8Tak-7" value="" style="line;strokeWidth=1;fillColor=#CC99FF;align=center;verticalAlign=top;spacingTop=-1;spacingLeft=3;spacingRight=3;rotatable=0;labelPosition=right;points=[];portConstraint=eastwest;strokeColor=default;swimlaneFillColor=#CC99FF;fontFamily=Helvetica;fontSize=12;fontColor=default;fontStyle=1;horizontal=1;" parent="JbC-HzIXj3Qun39S8Tak-1" vertex="1">
          <mxGeometry y="190" width="350" height="16.16" as="geometry" />
        </mxCell>
        <mxCell id="JbC-HzIXj3Qun39S8Tak-8" value="+showDailyPlan(): void" style="text;strokeColor=none;fillColor=none;align=left;verticalAlign=top;spacingLeft=4;spacingRight=4;overflow=hidden;rotatable=0;points=[[0,0.5],[1,0.5]];portConstraint=eastwest;whiteSpace=wrap;html=1;fontFamily=Helvetica;fontSize=12;fontColor=default;fontStyle=0;horizontal=1;" parent="JbC-HzIXj3Qun39S8Tak-1" vertex="1">
          <mxGeometry y="206.16" width="350" height="23.84" as="geometry" />
        </mxCell>
        <mxCell id="JbC-HzIXj3Qun39S8Tak-9" value="+addActivity():void" style="text;strokeColor=none;fillColor=none;align=left;verticalAlign=top;spacingLeft=4;spacingRight=4;overflow=hidden;rotatable=0;points=[[0,0.5],[1,0.5]];portConstraint=eastwest;whiteSpace=wrap;html=1;fontFamily=Helvetica;fontSize=12;fontColor=default;fontStyle=0;horizontal=1;" parent="JbC-HzIXj3Qun39S8Tak-1" vertex="1">
          <mxGeometry y="230" width="350" height="23.84" as="geometry" />
        </mxCell>
        <mxCell id="JbC-HzIXj3Qun39S8Tak-10" value="+removeActivity():void" style="text;strokeColor=none;fillColor=none;align=left;verticalAlign=top;spacingLeft=4;spacingRight=4;overflow=hidden;rotatable=0;points=[[0,0.5],[1,0.5]];portConstraint=eastwest;whiteSpace=wrap;html=1;fontFamily=Helvetica;fontSize=12;fontColor=default;fontStyle=0;horizontal=1;" parent="JbC-HzIXj3Qun39S8Tak-1" vertex="1">
          <mxGeometry y="253.84" width="350" height="23.84" as="geometry" />
        </mxCell>
        <mxCell id="JbC-HzIXj3Qun39S8Tak-11" value="+ plusBtnPress(): void" style="text;strokeColor=none;fillColor=none;align=left;verticalAlign=top;spacingLeft=4;spacingRight=4;overflow=hidden;rotatable=0;points=[[0,0.5],[1,0.5]];portConstraint=eastwest;whiteSpace=wrap;html=1;fontFamily=Helvetica;fontSize=12;fontColor=default;fontStyle=0;horizontal=1;" parent="JbC-HzIXj3Qun39S8Tak-1" vertex="1">
          <mxGeometry y="277.68" width="350" height="30" as="geometry" />
        </mxCell>
        <mxCell id="JbC-HzIXj3Qun39S8Tak-12" value="+ trashBtnPress(): void" style="text;strokeColor=none;fillColor=none;align=left;verticalAlign=top;spacingLeft=4;spacingRight=4;overflow=hidden;rotatable=0;points=[[0,0.5],[1,0.5]];portConstraint=eastwest;whiteSpace=wrap;html=1;fontFamily=Helvetica;fontSize=12;fontColor=default;fontStyle=0;horizontal=1;" parent="JbC-HzIXj3Qun39S8Tak-1" vertex="1">
          <mxGeometry y="307.68" width="350" height="30" as="geometry" />
        </mxCell>
        <mxCell id="JbC-HzIXj3Qun39S8Tak-13" value="+ selectDailyPlan(date: Date): void&amp;nbsp;" style="text;strokeColor=none;fillColor=none;align=left;verticalAlign=top;spacingLeft=4;spacingRight=4;overflow=hidden;rotatable=0;points=[[0,0.5],[1,0.5]];portConstraint=eastwest;whiteSpace=wrap;html=1;fontFamily=Helvetica;fontSize=12;fontColor=default;fontStyle=0;horizontal=1;" parent="JbC-HzIXj3Qun39S8Tak-1" vertex="1">
          <mxGeometry y="337.68" width="350" height="30" as="geometry" />
        </mxCell>
        <mxCell id="JbC-HzIXj3Qun39S8Tak-14" value="&lt;div style=&quot;text-align: center;&quot;&gt;&lt;span style=&quot;background-color: transparent; color: light-dark(rgb(0, 0, 0), rgb(255, 255, 255));&quot;&gt;+ showActivitiesForDailyPlan&lt;/span&gt;&lt;span style=&quot;background-color: transparent; color: light-dark(rgb(0, 0, 0), rgb(255, 255, 255));&quot;&gt;(activities: List&amp;lt;Activity&amp;gt;): void&lt;/span&gt;&lt;/div&gt;" style="text;strokeColor=none;fillColor=none;align=left;verticalAlign=top;spacingLeft=4;spacingRight=4;overflow=hidden;rotatable=0;points=[[0,0.5],[1,0.5]];portConstraint=eastwest;whiteSpace=wrap;html=1;fontFamily=Helvetica;fontSize=12;fontColor=default;fontStyle=0;horizontal=1;" parent="JbC-HzIXj3Qun39S8Tak-1" vertex="1">
          <mxGeometry y="367.68" width="350" height="30" as="geometry" />
        </mxCell>
        <mxCell id="JbC-HzIXj3Qun39S8Tak-15" value="+ displayConfirmationMessage(): void" style="text;strokeColor=none;fillColor=none;align=left;verticalAlign=top;spacingLeft=4;spacingRight=4;overflow=hidden;rotatable=0;points=[[0,0.5],[1,0.5]];portConstraint=eastwest;whiteSpace=wrap;html=1;fontFamily=Helvetica;fontSize=12;fontColor=default;fontStyle=0;horizontal=1;" parent="JbC-HzIXj3Qun39S8Tak-1" vertex="1">
          <mxGeometry y="397.68" width="350" height="30" as="geometry" />
        </mxCell>
        <mxCell id="JbC-HzIXj3Qun39S8Tak-16" value="+ showSuccessMessageForRemovedActivity(): void" style="text;strokeColor=none;fillColor=none;align=left;verticalAlign=top;spacingLeft=4;spacingRight=4;overflow=hidden;rotatable=0;points=[[0,0.5],[1,0.5]];portConstraint=eastwest;whiteSpace=wrap;html=1;fontFamily=Helvetica;fontSize=12;fontColor=default;fontStyle=0;horizontal=1;" parent="JbC-HzIXj3Qun39S8Tak-1" vertex="1">
          <mxGeometry y="427.68" width="350" height="30" as="geometry" />
        </mxCell>
        <mxCell id="JbC-HzIXj3Qun39S8Tak-17" value="+ showSuccessMessageForAddedActivity(): void" style="text;strokeColor=none;fillColor=none;align=left;verticalAlign=top;spacingLeft=4;spacingRight=4;overflow=hidden;rotatable=0;points=[[0,0.5],[1,0.5]];portConstraint=eastwest;whiteSpace=wrap;html=1;fontFamily=Helvetica;fontSize=12;fontColor=default;fontStyle=0;horizontal=1;" parent="JbC-HzIXj3Qun39S8Tak-1" vertex="1">
          <mxGeometry y="457.68" width="350" height="30" as="geometry" />
        </mxCell>
        <mxCell id="JbC-HzIXj3Qun39S8Tak-18" value="+ showDiscardMessage(): void" style="text;strokeColor=none;fillColor=none;align=left;verticalAlign=top;spacingLeft=4;spacingRight=4;overflow=hidden;rotatable=0;points=[[0,0.5],[1,0.5]];portConstraint=eastwest;whiteSpace=wrap;html=1;fontFamily=Helvetica;fontSize=12;fontColor=default;fontStyle=0;horizontal=1;" parent="JbC-HzIXj3Qun39S8Tak-1" vertex="1">
          <mxGeometry y="487.68" width="350" height="30" as="geometry" />
        </mxCell>
        <mxCell id="UBiFqDa5I5OpkXceWt7A-1" value="" style="endArrow=none;html=1;rounded=0;exitX=0.389;exitY=0.929;exitDx=0;exitDy=0;entryX=0.5;entryY=0;entryDx=0;entryDy=0;exitPerimeter=0;" parent="1" source="RT5UMt7bTEx5Ig8jD_6E-3" target="w6yn1cIwjwvY7r8YXmAY-24" edge="1">
          <mxGeometry relative="1" as="geometry">
            <mxPoint x="249" y="-1844" as="sourcePoint" />
            <mxPoint x="-150" y="-2090" as="targetPoint" />
          </mxGeometry>
        </mxCell>
        <mxCell id="UBiFqDa5I5OpkXceWt7A-2" value="1" style="edgeLabel;resizable=0;html=1;align=left;verticalAlign=bottom;" parent="UBiFqDa5I5OpkXceWt7A-1" connectable="0" vertex="1">
          <mxGeometry x="-1" relative="1" as="geometry">
            <mxPoint x="-42" y="22" as="offset" />
          </mxGeometry>
        </mxCell>
        <mxCell id="UBiFqDa5I5OpkXceWt7A-3" value="1" style="edgeLabel;resizable=0;html=1;align=right;verticalAlign=bottom;" parent="UBiFqDa5I5OpkXceWt7A-1" connectable="0" vertex="1">
          <mxGeometry x="1" relative="1" as="geometry">
            <mxPoint x="5" y="-20" as="offset" />
          </mxGeometry>
        </mxCell>
        <mxCell id="JkYixAbwR6YTWf4arVAi-1" value="&lt;div&gt;&lt;span style=&quot;font-weight: normal;&quot;&gt;&amp;lt;&amp;lt;Boundary&amp;gt;&amp;gt;&lt;/span&gt;&lt;/div&gt;GUIReview" style="swimlane;fontStyle=1;align=center;verticalAlign=top;childLayout=stackLayout;horizontal=1;startSize=42;horizontalStack=0;resizeParent=1;resizeParentMax=0;resizeLast=0;collapsible=1;marginBottom=0;whiteSpace=wrap;html=1;strokeColor=default;swimlaneFillColor=#CC99FF;fontFamily=Helvetica;fontSize=12;fontColor=default;fillColor=#CC99FF;" parent="1" vertex="1">
          <mxGeometry x="350" y="-2120" width="270" height="284" as="geometry" />
        </mxCell>
        <mxCell id="JkYixAbwR6YTWf4arVAi-2" value="-btnPostReview: Button" style="text;strokeColor=none;fillColor=none;align=left;verticalAlign=top;spacingLeft=4;spacingRight=4;overflow=hidden;rotatable=0;points=[[0,0.5],[1,0.5]];portConstraint=eastwest;whiteSpace=wrap;html=1;fontFamily=Helvetica;fontSize=12;fontColor=default;fontStyle=0;horizontal=1;" parent="JkYixAbwR6YTWf4arVAi-1" vertex="1">
          <mxGeometry y="42" width="270" height="26" as="geometry" />
        </mxCell>
        <mxCell id="JkYixAbwR6YTWf4arVAi-3" value="-btnCancelReview: Button" style="text;strokeColor=none;fillColor=none;align=left;verticalAlign=top;spacingLeft=4;spacingRight=4;overflow=hidden;rotatable=0;points=[[0,0.5],[1,0.5]];portConstraint=eastwest;whiteSpace=wrap;html=1;fontFamily=Helvetica;fontSize=12;fontColor=default;fontStyle=0;horizontal=1;" parent="JkYixAbwR6YTWf4arVAi-1" vertex="1">
          <mxGeometry y="68" width="270" height="26" as="geometry" />
        </mxCell>
        <mxCell id="JkYixAbwR6YTWf4arVAi-4" value="-btnTripPlan: Button" style="text;strokeColor=none;fillColor=none;align=left;verticalAlign=top;spacingLeft=4;spacingRight=4;overflow=hidden;rotatable=0;points=[[0,0.5],[1,0.5]];portConstraint=eastwest;whiteSpace=wrap;html=1;fontFamily=Helvetica;fontSize=12;fontColor=default;fontStyle=0;horizontal=1;" parent="JkYixAbwR6YTWf4arVAi-1" vertex="1">
          <mxGeometry y="94" width="270" height="26" as="geometry" />
        </mxCell>
        <mxCell id="JkYixAbwR6YTWf4arVAi-5" value="-btnActivity: Button" style="text;strokeColor=none;fillColor=none;align=left;verticalAlign=top;spacingLeft=4;spacingRight=4;overflow=hidden;rotatable=0;points=[[0,0.5],[1,0.5]];portConstraint=eastwest;whiteSpace=wrap;html=1;fontFamily=Helvetica;fontSize=12;fontColor=default;fontStyle=0;horizontal=1;" parent="JkYixAbwR6YTWf4arVAi-1" vertex="1">
          <mxGeometry y="120" width="270" height="26" as="geometry" />
        </mxCell>
        <mxCell id="JkYixAbwR6YTWf4arVAi-6" value="" style="line;strokeWidth=1;fillColor=#CC99FF;align=center;verticalAlign=top;spacingTop=-1;spacingLeft=3;spacingRight=3;rotatable=0;labelPosition=right;points=[];portConstraint=eastwest;strokeColor=default;swimlaneFillColor=#CC99FF;fontFamily=Helvetica;fontSize=12;fontColor=default;fontStyle=1;horizontal=1;" parent="JkYixAbwR6YTWf4arVAi-1" vertex="1">
          <mxGeometry y="146" width="270" height="8" as="geometry" />
        </mxCell>
        <mxCell id="JkYixAbwR6YTWf4arVAi-7" value="+submitReview():void" style="text;strokeColor=none;fillColor=none;align=left;verticalAlign=top;spacingLeft=4;spacingRight=4;overflow=hidden;rotatable=0;points=[[0,0.5],[1,0.5]];portConstraint=eastwest;whiteSpace=wrap;html=1;fontFamily=Helvetica;fontSize=12;fontColor=default;fontStyle=0;horizontal=1;" parent="JkYixAbwR6YTWf4arVAi-1" vertex="1">
          <mxGeometry y="154" width="270" height="26" as="geometry" />
        </mxCell>
        <mxCell id="JkYixAbwR6YTWf4arVAi-8" value="+ showSuccessMessage(message: string): void&amp;nbsp;" style="text;strokeColor=none;fillColor=none;align=left;verticalAlign=top;spacingLeft=4;spacingRight=4;overflow=hidden;rotatable=0;points=[[0,0.5],[1,0.5]];portConstraint=eastwest;whiteSpace=wrap;html=1;fontFamily=Helvetica;fontSize=12;fontColor=default;fontStyle=0;horizontal=1;" parent="JkYixAbwR6YTWf4arVAi-1" vertex="1">
          <mxGeometry y="180" width="270" height="26" as="geometry" />
        </mxCell>
        <mxCell id="JkYixAbwR6YTWf4arVAi-9" value="+ showFailMessage(message: string): void&amp;nbsp;" style="text;strokeColor=none;fillColor=none;align=left;verticalAlign=top;spacingLeft=4;spacingRight=4;overflow=hidden;rotatable=0;points=[[0,0.5],[1,0.5]];portConstraint=eastwest;whiteSpace=wrap;html=1;fontFamily=Helvetica;fontSize=12;fontColor=default;fontStyle=0;horizontal=1;" parent="JkYixAbwR6YTWf4arVAi-1" vertex="1">
          <mxGeometry y="206" width="270" height="26" as="geometry" />
        </mxCell>
        <mxCell id="JkYixAbwR6YTWf4arVAi-10" value="+ pressTripPlanBtn(): void" style="text;strokeColor=none;fillColor=none;align=left;verticalAlign=top;spacingLeft=4;spacingRight=4;overflow=hidden;rotatable=0;points=[[0,0.5],[1,0.5]];portConstraint=eastwest;whiteSpace=wrap;html=1;fontFamily=Helvetica;fontSize=12;fontColor=default;fontStyle=0;horizontal=1;" parent="JkYixAbwR6YTWf4arVAi-1" vertex="1">
          <mxGeometry y="232" width="270" height="26" as="geometry" />
        </mxCell>
        <mxCell id="JkYixAbwR6YTWf4arVAi-11" value="+ pressActivityBtn(): void" style="text;strokeColor=none;fillColor=none;align=left;verticalAlign=top;spacingLeft=4;spacingRight=4;overflow=hidden;rotatable=0;points=[[0,0.5],[1,0.5]];portConstraint=eastwest;whiteSpace=wrap;html=1;fontFamily=Helvetica;fontSize=12;fontColor=default;fontStyle=0;horizontal=1;" parent="JkYixAbwR6YTWf4arVAi-1" vertex="1">
          <mxGeometry y="258" width="270" height="26" as="geometry" />
        </mxCell>
        <mxCell id="n2p2FqtrJmBpAfCTR_1F-1" value="" style="endArrow=none;html=1;rounded=0;exitX=0.364;exitY=0.002;exitDx=0;exitDy=0;entryX=1;entryY=0.5;entryDx=0;entryDy=0;exitPerimeter=0;" parent="1" source="JbC-HzIXj3Qun39S8Tak-1" edge="1">
          <mxGeometry relative="1" as="geometry">
            <mxPoint x="267" y="-1912" as="sourcePoint" />
            <mxPoint x="60" y="-1763.875" as="targetPoint" />
          </mxGeometry>
        </mxCell>
        <mxCell id="n2p2FqtrJmBpAfCTR_1F-2" value="1" style="edgeLabel;resizable=0;html=1;align=left;verticalAlign=bottom;" parent="n2p2FqtrJmBpAfCTR_1F-1" connectable="0" vertex="1">
          <mxGeometry x="-1" relative="1" as="geometry">
            <mxPoint x="-5" y="-7" as="offset" />
          </mxGeometry>
        </mxCell>
        <mxCell id="n2p2FqtrJmBpAfCTR_1F-3" value="1" style="edgeLabel;resizable=0;html=1;align=right;verticalAlign=bottom;" parent="n2p2FqtrJmBpAfCTR_1F-1" connectable="0" vertex="1">
          <mxGeometry x="1" relative="1" as="geometry">
            <mxPoint x="30" y="10" as="offset" />
          </mxGeometry>
        </mxCell>
        <mxCell id="vm0qNcMWxZ1dU0cr7-dc-1" value="&lt;div&gt;&lt;span style=&quot;font-weight: normal;&quot;&gt;&amp;lt;&amp;lt;Boundary&amp;gt;&amp;gt;&lt;/span&gt;&lt;/div&gt;GUIOverview_Save-Cancel" style="swimlane;fontStyle=1;align=center;verticalAlign=top;childLayout=stackLayout;horizontal=1;startSize=42;horizontalStack=0;resizeParent=1;resizeParentMax=0;resizeLast=0;collapsible=1;marginBottom=0;whiteSpace=wrap;html=1;strokeColor=default;swimlaneFillColor=#CC99FF;fontFamily=Helvetica;fontSize=12;fontColor=default;fillColor=#CC99FF;" parent="1" vertex="1">
          <mxGeometry x="519.9982758620689" y="-1780.0011483253588" width="257.2413793103448" height="604.8813825608797" as="geometry" />
        </mxCell>
        <mxCell id="vm0qNcMWxZ1dU0cr7-dc-2" value="- TripDetailsBtn: Button&lt;div&gt;&lt;br&gt;&lt;/div&gt;" style="text;strokeColor=none;fillColor=none;align=left;verticalAlign=top;spacingLeft=4;spacingRight=4;overflow=hidden;rotatable=0;points=[[0,0.5],[1,0.5]];portConstraint=eastwest;whiteSpace=wrap;html=1;fontFamily=Helvetica;fontSize=12;fontColor=default;fontStyle=0;horizontal=1;" parent="vm0qNcMWxZ1dU0cr7-dc-1" vertex="1">
          <mxGeometry y="42" width="257.2413793103448" height="31.079340141398266" as="geometry" />
        </mxCell>
        <mxCell id="vm0qNcMWxZ1dU0cr7-dc-3" value="&lt;div&gt;- AIAssistantBtn: Button&lt;/div&gt;" style="text;strokeColor=none;fillColor=none;align=left;verticalAlign=top;spacingLeft=4;spacingRight=4;overflow=hidden;rotatable=0;points=[[0,0.5],[1,0.5]];portConstraint=eastwest;whiteSpace=wrap;html=1;fontFamily=Helvetica;fontSize=12;fontColor=default;fontStyle=0;horizontal=1;" parent="vm0qNcMWxZ1dU0cr7-dc-1" vertex="1">
          <mxGeometry y="73.07934014139826" width="257.2413793103448" height="31.079340141398266" as="geometry" />
        </mxCell>
        <mxCell id="vm0qNcMWxZ1dU0cr7-dc-4" value="&lt;div&gt;- SaveBtn: Button&lt;/div&gt;" style="text;strokeColor=none;fillColor=none;align=left;verticalAlign=top;spacingLeft=4;spacingRight=4;overflow=hidden;rotatable=0;points=[[0,0.5],[1,0.5]];portConstraint=eastwest;whiteSpace=wrap;html=1;fontFamily=Helvetica;fontSize=12;fontColor=default;fontStyle=0;horizontal=1;" parent="vm0qNcMWxZ1dU0cr7-dc-1" vertex="1">
          <mxGeometry y="104.15868028279652" width="257.2413793103448" height="31.079340141398266" as="geometry" />
        </mxCell>
        <mxCell id="vm0qNcMWxZ1dU0cr7-dc-5" value="&lt;div&gt;- CancelBtn: Button&lt;/div&gt;" style="text;strokeColor=none;fillColor=none;align=left;verticalAlign=top;spacingLeft=4;spacingRight=4;overflow=hidden;rotatable=0;points=[[0,0.5],[1,0.5]];portConstraint=eastwest;whiteSpace=wrap;html=1;fontFamily=Helvetica;fontSize=12;fontColor=default;fontStyle=0;horizontal=1;" parent="vm0qNcMWxZ1dU0cr7-dc-1" vertex="1">
          <mxGeometry y="135.2380204241948" width="257.2413793103448" height="31.079340141398266" as="geometry" />
        </mxCell>
        <mxCell id="vm0qNcMWxZ1dU0cr7-dc-6" value="&lt;div&gt;- PlusBtn: Button&lt;/div&gt;" style="text;strokeColor=none;fillColor=none;align=left;verticalAlign=top;spacingLeft=4;spacingRight=4;overflow=hidden;rotatable=0;points=[[0,0.5],[1,0.5]];portConstraint=eastwest;whiteSpace=wrap;html=1;fontFamily=Helvetica;fontSize=12;fontColor=default;fontStyle=0;horizontal=1;" parent="vm0qNcMWxZ1dU0cr7-dc-1" vertex="1">
          <mxGeometry y="166.31736056559305" width="257.2413793103448" height="31.079340141398266" as="geometry" />
        </mxCell>
        <mxCell id="vm0qNcMWxZ1dU0cr7-dc-7" value="&lt;div&gt;- DailyPlanBtn: Button&lt;/div&gt;" style="text;strokeColor=none;fillColor=none;align=left;verticalAlign=top;spacingLeft=4;spacingRight=4;overflow=hidden;rotatable=0;points=[[0,0.5],[1,0.5]];portConstraint=eastwest;whiteSpace=wrap;html=1;fontFamily=Helvetica;fontSize=12;fontColor=default;fontStyle=0;horizontal=1;" parent="vm0qNcMWxZ1dU0cr7-dc-1" vertex="1">
          <mxGeometry y="197.3967007069913" width="257.2413793103448" height="31.079340141398266" as="geometry" />
        </mxCell>
        <mxCell id="vm0qNcMWxZ1dU0cr7-dc-8" value="&lt;div&gt;- ReviewButton: Button&lt;/div&gt;" style="text;strokeColor=none;fillColor=none;align=left;verticalAlign=top;spacingLeft=4;spacingRight=4;overflow=hidden;rotatable=0;points=[[0,0.5],[1,0.5]];portConstraint=eastwest;whiteSpace=wrap;html=1;fontFamily=Helvetica;fontSize=12;fontColor=default;fontStyle=0;horizontal=1;" parent="vm0qNcMWxZ1dU0cr7-dc-1" vertex="1">
          <mxGeometry y="228.47604084838957" width="257.2413793103448" height="31.079340141398266" as="geometry" />
        </mxCell>
        <mxCell id="vm0qNcMWxZ1dU0cr7-dc-9" value="- ShareBtn: Button" style="text;strokeColor=none;fillColor=none;align=left;verticalAlign=top;spacingLeft=4;spacingRight=4;overflow=hidden;rotatable=0;points=[[0,0.5],[1,0.5]];portConstraint=eastwest;whiteSpace=wrap;html=1;fontFamily=Helvetica;fontSize=12;fontColor=default;fontStyle=0;horizontal=1;" parent="vm0qNcMWxZ1dU0cr7-dc-1" vertex="1">
          <mxGeometry y="259.55538098978786" width="257.2413793103448" height="31.079340141398266" as="geometry" />
        </mxCell>
        <mxCell id="vm0qNcMWxZ1dU0cr7-dc-10" value="- DestinationInput: TextBox" style="text;strokeColor=none;fillColor=none;align=left;verticalAlign=top;spacingLeft=4;spacingRight=4;overflow=hidden;rotatable=0;points=[[0,0.5],[1,0.5]];portConstraint=eastwest;whiteSpace=wrap;html=1;fontFamily=Helvetica;fontSize=12;fontColor=default;fontStyle=0;horizontal=1;" parent="vm0qNcMWxZ1dU0cr7-dc-1" vertex="1">
          <mxGeometry y="290.63472113118615" width="257.2413793103448" height="31.079340141398266" as="geometry" />
        </mxCell>
        <mxCell id="vm0qNcMWxZ1dU0cr7-dc-11" value="" style="line;strokeWidth=1;fillColor=#CC99FF;align=center;verticalAlign=top;spacingTop=-1;spacingLeft=3;spacingRight=3;rotatable=0;labelPosition=right;points=[];portConstraint=eastwest;strokeColor=default;swimlaneFillColor=#CC99FF;fontFamily=Helvetica;fontSize=12;fontColor=default;fontStyle=1;horizontal=1;" parent="vm0qNcMWxZ1dU0cr7-dc-1" vertex="1">
          <mxGeometry y="321.71406127258444" width="257.2413793103448" height="13.813040062843678" as="geometry" />
        </mxCell>
        <mxCell id="vm0qNcMWxZ1dU0cr7-dc-12" value="+ showEstimatedCost(): void&lt;div&gt;&lt;br&gt;&lt;/div&gt;" style="text;strokeColor=none;fillColor=none;align=left;verticalAlign=top;spacingLeft=4;spacingRight=4;overflow=hidden;rotatable=0;points=[[0,0.5],[1,0.5]];portConstraint=eastwest;whiteSpace=wrap;html=1;fontFamily=Helvetica;fontSize=12;fontColor=default;fontStyle=0;horizontal=1;" parent="vm0qNcMWxZ1dU0cr7-dc-1" vertex="1">
          <mxGeometry y="335.52710133542814" width="257.2413793103448" height="44.892380204241945" as="geometry" />
        </mxCell>
        <mxCell id="vm0qNcMWxZ1dU0cr7-dc-13" value="&lt;div&gt;+ showBudget():: void&lt;/div&gt;&lt;div&gt;&lt;br&gt;&lt;/div&gt;" style="text;strokeColor=none;fillColor=none;align=left;verticalAlign=top;spacingLeft=4;spacingRight=4;overflow=hidden;rotatable=0;points=[[0,0.5],[1,0.5]];portConstraint=eastwest;whiteSpace=wrap;html=1;fontFamily=Helvetica;fontSize=12;fontColor=default;fontStyle=0;horizontal=1;" parent="vm0qNcMWxZ1dU0cr7-dc-1" vertex="1">
          <mxGeometry y="380.4194815396701" width="257.2413793103448" height="44.892380204241945" as="geometry" />
        </mxCell>
        <mxCell id="vm0qNcMWxZ1dU0cr7-dc-14" value="+ showFavouritesList(): void" style="text;strokeColor=none;fillColor=none;align=left;verticalAlign=top;spacingLeft=4;spacingRight=4;overflow=hidden;rotatable=0;points=[[0,0.5],[1,0.5]];portConstraint=eastwest;whiteSpace=wrap;html=1;fontFamily=Helvetica;fontSize=12;fontColor=default;fontStyle=0;horizontal=1;" parent="vm0qNcMWxZ1dU0cr7-dc-1" vertex="1">
          <mxGeometry y="425.311861743912" width="257.2413793103448" height="44.892380204241945" as="geometry" />
        </mxCell>
        <mxCell id="vm0qNcMWxZ1dU0cr7-dc-15" value="+ showTripPlan(): void" style="text;strokeColor=none;fillColor=none;align=left;verticalAlign=top;spacingLeft=4;spacingRight=4;overflow=hidden;rotatable=0;points=[[0,0.5],[1,0.5]];portConstraint=eastwest;whiteSpace=wrap;html=1;fontFamily=Helvetica;fontSize=12;fontColor=default;fontStyle=0;horizontal=1;" parent="vm0qNcMWxZ1dU0cr7-dc-1" vertex="1">
          <mxGeometry y="470.20424194815394" width="257.2413793103448" height="44.892380204241945" as="geometry" />
        </mxCell>
        <mxCell id="vm0qNcMWxZ1dU0cr7-dc-16" value="+ pressSaveBtn(): void" style="text;strokeColor=none;fillColor=none;align=left;verticalAlign=top;spacingLeft=4;spacingRight=4;overflow=hidden;rotatable=0;points=[[0,0.5],[1,0.5]];portConstraint=eastwest;whiteSpace=wrap;html=1;fontFamily=Helvetica;fontSize=12;fontColor=default;fontStyle=0;horizontal=1;" parent="vm0qNcMWxZ1dU0cr7-dc-1" vertex="1">
          <mxGeometry y="515.0966221523959" width="257.2413793103448" height="44.892380204241945" as="geometry" />
        </mxCell>
        <mxCell id="vm0qNcMWxZ1dU0cr7-dc-17" value="+ pressCancelBtn(): void" style="text;strokeColor=none;fillColor=none;align=left;verticalAlign=top;spacingLeft=4;spacingRight=4;overflow=hidden;rotatable=0;points=[[0,0.5],[1,0.5]];portConstraint=eastwest;whiteSpace=wrap;html=1;fontFamily=Helvetica;fontSize=12;fontColor=default;fontStyle=0;horizontal=1;" parent="vm0qNcMWxZ1dU0cr7-dc-1" vertex="1">
          <mxGeometry y="559.9890023566378" width="257.2413793103448" height="44.892380204241945" as="geometry" />
        </mxCell>
        <mxCell id="ZjjSsFK6U_Hb6iRL4kpm-6" value="" style="endArrow=none;html=1;rounded=0;exitX=0;exitY=0.5;exitDx=0;exitDy=0;entryX=1;entryY=0.5;entryDx=0;entryDy=0;" parent="1" source="JkYixAbwR6YTWf4arVAi-5" target="w6yn1cIwjwvY7r8YXmAY-26" edge="1">
          <mxGeometry relative="1" as="geometry">
            <mxPoint x="102" y="-2072" as="sourcePoint" />
            <mxPoint x="-55" y="-1930" as="targetPoint" />
          </mxGeometry>
        </mxCell>
        <mxCell id="ZjjSsFK6U_Hb6iRL4kpm-7" value="1" style="edgeLabel;resizable=0;html=1;align=left;verticalAlign=bottom;" parent="ZjjSsFK6U_Hb6iRL4kpm-6" connectable="0" vertex="1">
          <mxGeometry x="-1" relative="1" as="geometry">
            <mxPoint x="-40" y="7" as="offset" />
          </mxGeometry>
        </mxCell>
        <mxCell id="ZjjSsFK6U_Hb6iRL4kpm-8" value="1" style="edgeLabel;resizable=0;html=1;align=right;verticalAlign=bottom;" parent="ZjjSsFK6U_Hb6iRL4kpm-6" connectable="0" vertex="1">
          <mxGeometry x="1" relative="1" as="geometry">
            <mxPoint x="30" y="-19" as="offset" />
          </mxGeometry>
        </mxCell>
        <mxCell id="n2p2FqtrJmBpAfCTR_1F-4" value="" style="endArrow=none;html=1;rounded=0;exitX=0;exitY=0.5;exitDx=0;exitDy=0;entryX=1;entryY=0.5;entryDx=0;entryDy=0;" parent="1" source="vm0qNcMWxZ1dU0cr7-dc-2" target="w6yn1cIwjwvY7r8YXmAY-27" edge="1">
          <mxGeometry relative="1" as="geometry">
            <mxPoint x="449" y="-1860" as="sourcePoint" />
            <mxPoint x="160" y="-1737" as="targetPoint" />
          </mxGeometry>
        </mxCell>
        <mxCell id="n2p2FqtrJmBpAfCTR_1F-5" value="1" style="edgeLabel;resizable=0;html=1;align=left;verticalAlign=bottom;" parent="n2p2FqtrJmBpAfCTR_1F-4" connectable="0" vertex="1">
          <mxGeometry x="-1" relative="1" as="geometry">
            <mxPoint x="-42" y="14" as="offset" />
          </mxGeometry>
        </mxCell>
        <mxCell id="n2p2FqtrJmBpAfCTR_1F-6" value="1" style="edgeLabel;resizable=0;html=1;align=right;verticalAlign=bottom;" parent="n2p2FqtrJmBpAfCTR_1F-4" connectable="0" vertex="1">
          <mxGeometry x="1" relative="1" as="geometry">
            <mxPoint x="50" y="5" as="offset" />
          </mxGeometry>
        </mxCell>
        <mxCell id="ZjjSsFK6U_Hb6iRL4kpm-9" value="" style="endArrow=none;html=1;rounded=0;exitX=0;exitY=0.5;exitDx=0;exitDy=0;entryX=0.659;entryY=0.003;entryDx=0;entryDy=0;entryPerimeter=0;" parent="1" source="w6yn1cIwjwvY7r8YXmAY-29" target="w6yn1cIwjwvY7r8YXmAY-13" edge="1">
          <mxGeometry relative="1" as="geometry">
            <mxPoint x="-173" y="-1590.96" as="sourcePoint" />
            <mxPoint x="-330" y="-1448.96" as="targetPoint" />
          </mxGeometry>
        </mxCell>
        <mxCell id="ZjjSsFK6U_Hb6iRL4kpm-10" value="1" style="edgeLabel;resizable=0;html=1;align=left;verticalAlign=bottom;" parent="ZjjSsFK6U_Hb6iRL4kpm-9" connectable="0" vertex="1">
          <mxGeometry x="-1" relative="1" as="geometry">
            <mxPoint x="-42" y="22" as="offset" />
          </mxGeometry>
        </mxCell>
        <mxCell id="ZjjSsFK6U_Hb6iRL4kpm-11" value="1" style="edgeLabel;resizable=0;html=1;align=right;verticalAlign=bottom;" parent="ZjjSsFK6U_Hb6iRL4kpm-9" connectable="0" vertex="1">
          <mxGeometry x="1" relative="1" as="geometry">
            <mxPoint x="5" y="-20" as="offset" />
          </mxGeometry>
        </mxCell>
        <mxCell id="n2p2FqtrJmBpAfCTR_1F-7" value="" style="endArrow=none;html=1;rounded=0;exitX=0;exitY=0.1;exitDx=0;exitDy=0;entryX=1;entryY=0.5;entryDx=0;entryDy=0;exitPerimeter=0;" parent="1" source="w6yn1cIwjwvY7r8YXmAY-24" target="w6yn1cIwjwvY7r8YXmAY-5" edge="1">
          <mxGeometry relative="1" as="geometry">
            <mxPoint x="-83" y="-2110" as="sourcePoint" />
            <mxPoint x="-240" y="-1968" as="targetPoint" />
          </mxGeometry>
        </mxCell>
        <mxCell id="n2p2FqtrJmBpAfCTR_1F-8" value="1" style="edgeLabel;resizable=0;html=1;align=left;verticalAlign=bottom;" parent="n2p2FqtrJmBpAfCTR_1F-7" connectable="0" vertex="1">
          <mxGeometry x="-1" relative="1" as="geometry">
            <mxPoint x="-42" y="22" as="offset" />
          </mxGeometry>
        </mxCell>
        <mxCell id="n2p2FqtrJmBpAfCTR_1F-9" value="1..*" style="edgeLabel;resizable=0;html=1;align=right;verticalAlign=bottom;" parent="n2p2FqtrJmBpAfCTR_1F-7" connectable="0" vertex="1">
          <mxGeometry x="1" relative="1" as="geometry">
            <mxPoint x="20" y="-1" as="offset" />
          </mxGeometry>
        </mxCell>
        <mxCell id="ZjjSsFK6U_Hb6iRL4kpm-3" value="" style="endArrow=none;html=1;rounded=0;exitX=0;exitY=0.231;exitDx=0;exitDy=0;entryX=0.5;entryY=0;entryDx=0;entryDy=0;exitPerimeter=0;" parent="1" source="w6yn1cIwjwvY7r8YXmAY-27" edge="1">
          <mxGeometry relative="1" as="geometry">
            <mxPoint x="-205.36" y="-1830" as="sourcePoint" />
            <mxPoint x="-362.36" y="-1688" as="targetPoint" />
            <Array as="points">
              <mxPoint x="-220" y="-1820" />
            </Array>
          </mxGeometry>
        </mxCell>
        <mxCell id="ZjjSsFK6U_Hb6iRL4kpm-4" value="1" style="edgeLabel;resizable=0;html=1;align=left;verticalAlign=bottom;" parent="ZjjSsFK6U_Hb6iRL4kpm-3" connectable="0" vertex="1">
          <mxGeometry x="-1" relative="1" as="geometry">
            <mxPoint x="-42" y="22" as="offset" />
          </mxGeometry>
        </mxCell>
        <mxCell id="ZjjSsFK6U_Hb6iRL4kpm-5" value="1" style="edgeLabel;resizable=0;html=1;align=right;verticalAlign=bottom;" parent="ZjjSsFK6U_Hb6iRL4kpm-3" connectable="0" vertex="1">
          <mxGeometry x="1" relative="1" as="geometry">
            <mxPoint x="5" y="-20" as="offset" />
          </mxGeometry>
        </mxCell>
        <mxCell id="TUmI8PAQ9Mw1TIQM8snp-1" value="&lt;div&gt;&lt;span style=&quot;font-weight: normal;&quot;&gt;&amp;lt;&amp;lt;Boundary&amp;gt;&amp;gt;&lt;/span&gt;&lt;/div&gt;Favorites" style="swimlane;fontStyle=1;align=center;verticalAlign=top;childLayout=stackLayout;horizontal=1;startSize=40;horizontalStack=0;resizeParent=1;resizeParentMax=0;resizeLast=0;collapsible=1;marginBottom=0;whiteSpace=wrap;html=1;swimlaneFillColor=#CC99FF;fillColor=#CC99FF;" parent="1" vertex="1">
          <mxGeometry x="-200" y="-2160" width="160" height="100" as="geometry" />
        </mxCell>
        <mxCell id="TUmI8PAQ9Mw1TIQM8snp-2" value="+favoritesListBtn" style="text;strokeColor=none;fillColor=none;align=left;verticalAlign=top;spacingLeft=4;spacingRight=4;overflow=hidden;rotatable=0;points=[[0,0.5],[1,0.5]];portConstraint=eastwest;whiteSpace=wrap;html=1;" parent="TUmI8PAQ9Mw1TIQM8snp-1" vertex="1">
          <mxGeometry y="40" width="160" height="26" as="geometry" />
        </mxCell>
        <mxCell id="TUmI8PAQ9Mw1TIQM8snp-3" value="" style="line;strokeWidth=1;fillColor=none;align=left;verticalAlign=middle;spacingTop=-1;spacingLeft=3;spacingRight=3;rotatable=0;labelPosition=right;points=[];portConstraint=eastwest;strokeColor=inherit;" parent="TUmI8PAQ9Mw1TIQM8snp-1" vertex="1">
          <mxGeometry y="66" width="160" height="8" as="geometry" />
        </mxCell>
        <mxCell id="TUmI8PAQ9Mw1TIQM8snp-4" value="&lt;div&gt;+showFavoritesList()&lt;/div&gt;" style="text;strokeColor=none;fillColor=none;align=left;verticalAlign=top;spacingLeft=4;spacingRight=4;overflow=hidden;rotatable=0;points=[[0,0.5],[1,0.5]];portConstraint=eastwest;whiteSpace=wrap;html=1;" parent="TUmI8PAQ9Mw1TIQM8snp-1" vertex="1">
          <mxGeometry y="74" width="160" height="26" as="geometry" />
        </mxCell>
        <mxCell id="TUmI8PAQ9Mw1TIQM8snp-5" value="" style="endArrow=none;html=1;rounded=0;" parent="1" source="TUmI8PAQ9Mw1TIQM8snp-1" target="w6yn1cIwjwvY7r8YXmAY-24" edge="1">
          <mxGeometry relative="1" as="geometry">
            <mxPoint x="102" y="-2072" as="sourcePoint" />
            <mxPoint x="-55" y="-1930" as="targetPoint" />
          </mxGeometry>
        </mxCell>
        <mxCell id="TUmI8PAQ9Mw1TIQM8snp-6" value="1" style="edgeLabel;resizable=0;html=1;align=left;verticalAlign=bottom;" parent="TUmI8PAQ9Mw1TIQM8snp-5" connectable="0" vertex="1">
          <mxGeometry x="-1" relative="1" as="geometry">
            <mxPoint x="-42" y="22" as="offset" />
          </mxGeometry>
        </mxCell>
        <mxCell id="TUmI8PAQ9Mw1TIQM8snp-7" value="1" style="edgeLabel;resizable=0;html=1;align=right;verticalAlign=bottom;" parent="TUmI8PAQ9Mw1TIQM8snp-5" connectable="0" vertex="1">
          <mxGeometry x="1" relative="1" as="geometry">
            <mxPoint x="5" y="-20" as="offset" />
          </mxGeometry>
        </mxCell>
      </root>
    </mxGraphModel>
  </diagram>
</mxfile>
